<svg width="318" height="291" viewBox="0 0 318 291" fill="none" xmlns="http://www.w3.org/2000/svg">
<rect width="318" height="291" fill="#D9D9D9"/>
<path d="M269.582 234.594C253.838 207.473 228.638 187.117 198.812 177.43C213.109 168.929 224.218 155.969 230.434 140.541C236.651 125.114 237.63 108.072 233.222 92.0344C228.814 75.9965 219.262 61.8494 206.034 51.7666C192.805 41.6838 176.633 36.2229 160 36.2229C143.367 36.2229 127.195 41.6838 113.966 51.7666C100.738 61.8494 91.1863 75.9965 86.7781 92.0344C82.3698 108.072 83.3491 125.114 89.5655 140.541C95.7818 155.969 106.891 168.929 121.187 177.43C91.3619 187.117 66.1616 207.473 50.4179 234.594C49.645 235.865 49.2362 237.325 49.2362 238.813C49.2362 240.301 49.645 241.76 50.4179 243.031C51.1391 244.324 52.1958 245.399 53.4766 246.141C54.7574 246.884 56.2149 247.267 57.6953 247.25H262.305C263.785 247.267 265.242 246.884 266.523 246.141C267.804 245.399 268.861 244.324 269.582 243.031C270.355 241.76 270.764 240.301 270.764 238.813C270.764 237.325 270.355 235.865 269.582 234.594V234.594Z" fill="white"/>
</svg>
