<svg width="106" height="27" viewBox="0 0 106 27" fill="none" xmlns="http://www.w3.org/2000/svg">
<path d="M0.964 26L10.936 0.799998H16.12L26.02 26H19.828L15.076 13.22C14.884 12.716 14.692 12.176 14.5 11.6C14.308 11.024 14.116 10.436 13.924 9.836C13.732 9.212 13.54 8.612 13.348 8.036C13.18 7.436 13.036 6.884 12.916 6.38L13.996 6.344C13.852 6.944 13.684 7.532 13.492 8.108C13.324 8.684 13.144 9.26 12.952 9.836C12.784 10.388 12.592 10.952 12.376 11.528C12.16 12.08 11.956 12.656 11.764 13.256L7.012 26H0.964ZM5.716 21.176L7.624 16.568H19.216L21.088 21.176H5.716ZM29.1641 26V0.799998H39.7121C41.5601 0.799998 43.2521 1.112 44.7881 1.736C46.3241 2.336 47.6441 3.2 48.7481 4.328C49.8761 5.456 50.7401 6.788 51.3401 8.324C51.9401 9.86 52.2401 11.552 52.2401 13.4C52.2401 15.248 51.9401 16.952 51.3401 18.512C50.7401 20.048 49.8761 21.38 48.7481 22.508C47.6441 23.612 46.3241 24.476 44.7881 25.1C43.2521 25.7 41.5601 26 39.7121 26H29.1641ZM35.2841 21.824L34.4561 20.6H39.5321C40.5401 20.6 41.4401 20.432 42.2321 20.096C43.0241 19.736 43.6961 19.244 44.2481 18.62C44.8241 17.996 45.2681 17.24 45.5801 16.352C45.8921 15.464 46.0481 14.48 46.0481 13.4C46.0481 12.32 45.8921 11.336 45.5801 10.448C45.2681 9.56 44.8241 8.804 44.2481 8.18C43.6961 7.556 43.0241 7.076 42.2321 6.74C41.4401 6.38 40.5401 6.2 39.5321 6.2H34.3481L35.2841 5.048V21.824ZM68.4207 26.36C66.5247 26.36 64.7727 26.048 63.1647 25.424C61.5807 24.776 60.2007 23.876 59.0247 22.724C57.8487 21.548 56.9367 20.168 56.2887 18.584C55.6647 16.976 55.3527 15.212 55.3527 13.292C55.3527 11.42 55.6887 9.692 56.3607 8.108C57.0327 6.524 57.9567 5.156 59.1327 4.004C60.3327 2.828 61.7367 1.916 63.3447 1.268C64.9767 0.619998 66.7527 0.295998 68.6727 0.295998C69.8727 0.295998 71.0487 0.451998 72.2007 0.763999C73.3527 1.076 74.4207 1.544 75.4047 2.168C76.4127 2.768 77.2767 3.488 77.9967 4.328L74.2527 8.612C73.7487 8.084 73.2087 7.628 72.6327 7.244C72.0807 6.836 71.4687 6.524 70.7967 6.308C70.1247 6.092 69.4047 5.984 68.6367 5.984C67.6767 5.984 66.7647 6.164 65.9007 6.524C65.0607 6.86 64.3167 7.352 63.6687 8C63.0447 8.624 62.5527 9.392 62.1927 10.304C61.8327 11.216 61.6527 12.236 61.6527 13.364C61.6527 14.468 61.8327 15.476 62.1927 16.388C62.5527 17.276 63.0567 18.044 63.7047 18.692C64.3527 19.34 65.1327 19.832 66.0447 20.168C66.9807 20.504 68.0127 20.672 69.1407 20.672C69.9087 20.672 70.6407 20.564 71.3367 20.348C72.0327 20.132 72.6687 19.844 73.2447 19.484C73.8447 19.1 74.3727 18.668 74.8287 18.188L77.7807 22.868C77.1807 23.54 76.3767 24.14 75.3687 24.668C74.3847 25.196 73.2807 25.616 72.0567 25.928C70.8567 26.216 69.6447 26.36 68.4207 26.36ZM93.6688 26.36C91.6528 26.36 89.8288 26.036 88.1968 25.388C86.5648 24.74 85.1608 23.828 83.9848 22.652C82.8088 21.476 81.9088 20.096 81.2848 18.512C80.6608 16.904 80.3488 15.164 80.3488 13.292C80.3488 11.42 80.6728 9.704 81.3208 8.144C81.9928 6.56 82.9408 5.18 84.1648 4.004C85.3888 2.828 86.8288 1.916 88.4848 1.268C90.1648 0.619998 91.9888 0.295998 93.9568 0.295998C95.3488 0.295998 96.6568 0.475998 97.8808 0.835998C99.1288 1.196 100.257 1.688 101.265 2.312C102.273 2.936 103.125 3.656 103.821 4.472L100.113 8.396C99.5128 7.82 98.8888 7.34 98.2408 6.956C97.6168 6.572 96.9448 6.272 96.2248 6.056C95.5048 5.816 94.7368 5.696 93.9208 5.696C92.8648 5.696 91.8928 5.888 91.0048 6.272C90.1408 6.656 89.3728 7.196 88.7008 7.892C88.0528 8.564 87.5488 9.368 87.1888 10.304C86.8288 11.216 86.6488 12.212 86.6488 13.292C86.6488 14.372 86.8408 15.38 87.2248 16.316C87.6088 17.252 88.1368 18.068 88.8088 18.764C89.4808 19.436 90.2728 19.976 91.1848 20.384C92.1208 20.768 93.1168 20.96 94.1728 20.96C94.9168 20.96 95.6128 20.84 96.2608 20.6C96.9328 20.36 97.5088 20.036 97.9888 19.628C98.4688 19.22 98.8528 18.74 99.1408 18.188C99.4288 17.612 99.5728 17 99.5728 16.352V15.416L100.365 16.64H93.4168V11.852H105.261C105.309 12.116 105.345 12.476 105.369 12.932C105.393 13.388 105.405 13.832 105.405 14.264C105.429 14.696 105.441 15.02 105.441 15.236C105.441 16.868 105.141 18.368 104.541 19.736C103.965 21.08 103.149 22.244 102.093 23.228C101.037 24.212 99.7888 24.98 98.3488 25.532C96.9088 26.084 95.3488 26.36 93.6688 26.36Z" fill="white"/>
</svg>
